<svg width="8" height="5" viewBox="0 0 8 5" fill="none" xmlns="http://www.w3.org/2000/svg">
<path d="M3.53976 0.193988C3.28126 0.452611 3.28126 0.871922 3.53976 1.13055L6.87001 4.46237C7.12851 4.721 7.54762 4.721 7.80612 4.46237C8.06462 4.20375 8.06462 3.78444 7.80612 3.52581L4.47587 0.193988C4.21737 -0.0646358 3.79826 -0.0646353 3.53976 0.193988Z" fill="#0066FF"/>
<path d="M4.47058 0.193988C4.72908 0.452611 4.72908 0.871922 4.47058 1.13055L1.12999 4.47272C0.871489 4.73134 0.452377 4.73134 0.193876 4.47272C-0.0646252 4.2141 -0.0646252 3.79479 0.193876 3.53616L3.53447 0.193988C3.79297 -0.0646358 4.21208 -0.0646353 4.47058 0.193988Z" fill="#0066FF"/>
</svg>
